<?xml version="1.0" encoding="utf-8"?>
<!-- Generator: Adobe Illustrator 18.0.0, SVG Export Plug-In . SVG Version: 6.00 Build 0)  -->
<!DOCTYPE svg PUBLIC "-//W3C//DTD SVG 1.1//EN" "http://www.w3.org/Graphics/SVG/1.1/DTD/svg11.dtd">
<svg version="1.1" id="Capa_1" xmlns="http://www.w3.org/2000/svg" xmlns:xlink="http://www.w3.org/1999/xlink" x="0px" y="0px"
	 viewBox="0 0 512 512" enable-background="new 0 0 512 512" xml:space="preserve">
<rect id="svgEditorBackground" fill="none" width="512" height="512"/>
<path fill="#33CCCC" d="M212.9,378.8c9-15.2,9.7-31-12.5-49.4c-28.3-23.6-99.1-23.4-99.1-23.4s12.6,69.6,40.9,93.2
	c22.2,18.5,37.5,15,50.9,3.4L161,355.6L212.9,378.8z"/>
<path fill="#FF9966" d="M145.8,270.6c19.5,16.1,32.9,12.9,44.5,2.7l-28.3-40.8l45.5,20c7.8-13.3,8.3-27.1-11.2-43.2
	c-24.9-20.5-86.7-20-86.7-20S120.9,250.1,145.8,270.6z"/>
<path fill="#30D0FF" d="M285.7,170l36.3-37.8l-11.2,51.2c15.5,5.3,29.8,2.9,42.3-20.6c16-30,2.6-93.8,2.6-93.8s-60.5,24.5-76.5,54.4
	C266.7,147,272.7,160.2,285.7,170z"/>
<path fill="#FF7C80" d="M304.3,258.7l42-26.7l-21.8,44.8c13.1,8.4,26.8,9.4,43.6-9.5c21.5-24.1,23.4-86,23.4-86s-61.3,9-82.8,33.1
	C292,233.1,294.5,246.6,304.3,258.7z"/>
<path fill="#FFCC00" d="M439.5,283.5c0,0-73.9-2.8-104.4,20.8c-23.9,18.5-23.8,35-14.9,51.2l55.1-22.2l-35.3,47.7
	c13.5,12.7,29.4,16.9,53.3-1.6C423.7,355.7,439.5,283.5,439.5,283.5z"/>
<path fill="#92D050" d="M225.7,165.8l-10.8-49.6l35.1,36.6c12.6-9.5,18.4-22.4,6.3-45.1c-15.5-29-74.1-52.7-74.1-52.7
	s-13,61.9,2.5,90.9C196.8,168.6,210.7,170.9,225.7,165.8z"/>
<path fill="#FFFFFF" d="M282.2,501.8c36.8-135.4,27.6-228.2-50.1-353.2c14.8,47.4,51.4,152.9,51.4,201.5
	c-1.1,14.2-32.9-4.3-80.5-73.5c13.6,45.4,23.2,52.1,55.1,84.7c15.4,15.8,25.6,20,21.3,39.5c-5.2,23.1-8.6,46.8-15.6,69.4
	c-6.9,22-6.5,24.7-41.3,41l83.3,0.6C302.1,511.2,290.8,499.7,282.2,501.8z"/>
</svg>
